<svg width="81" height="79" viewBox="0 0 81 79" fill="none" xmlns="http://www.w3.org/2000/svg">
<g clip-path="url(#clip0_81_44090)">
<path d="M23.9045 0.591471C22.8311 1.1091 22.2866 1.6724 21.7576 2.78378L21.3843 3.545V11.553V19.561L21.8665 20.4897C22.3955 21.5402 22.9711 22.073 24.1067 22.5907L24.8845 22.9561H33.0518C40.9236 22.9561 41.2503 22.9408 41.9192 22.6363C42.9926 22.1644 43.5993 21.6315 44.1127 20.7333L44.595 19.9112H59.3583H74.1217L74.5728 19.4849C74.8373 19.2565 76.2685 17.5362 77.762 15.6484C80.3755 12.3751 80.5 12.1924 80.5 11.5378C80.5 10.8831 80.3755 10.7004 77.762 7.42721C76.2685 5.53939 74.8373 3.81903 74.5728 3.57545L74.1217 3.16439H59.3583H44.595L44.1127 2.34227C43.5993 1.44403 42.9926 0.911182 41.9192 0.439228C41.2503 0.134741 40.9236 0.119516 33.0363 0.119516H24.8534L23.9045 0.591471ZM41.1569 3.60589L41.6081 4.0474V11.5378V19.0282L41.1569 19.4697L40.7058 19.9112H33.0518H25.3979L24.9468 19.4697L24.4956 19.0282V11.5378V4.0474L24.9468 3.60589L25.3979 3.16439H33.0518H40.7058L41.1569 3.60589ZM74.8217 8.75173C75.9263 10.1524 76.8286 11.4008 76.8286 11.5378C76.8286 11.6748 75.9263 12.9232 74.8217 14.3238L72.7994 16.8511L58.7672 16.8663H44.7194V11.5378V6.20926H58.7672L72.7994 6.22448L74.8217 8.75173Z" fill="#4D4BC9"/>
<path d="M28.7582 10.1222C27.7315 10.3201 27.3581 11.8121 28.1359 12.5733L28.5404 12.9844H33.0519H37.5633L37.9678 12.5733C38.5434 12.01 38.5434 11.0661 37.9678 10.5028L37.5633 10.0917L33.3163 10.0765C30.9984 10.0613 28.9293 10.0765 28.7582 10.1222Z" fill="#292E40"/>
<path d="M10.899 5.844C10.5723 6.17894 10.4946 6.39207 10.4946 6.98582C10.4946 7.70137 10.5412 7.7775 11.5991 8.87365L12.7192 10.0155H8.5344C4.47409 10.0155 4.31852 10.0307 3.5718 10.3809C2.43615 10.8985 1.86055 11.4313 1.33162 12.4818L0.849365 13.4105L0.849365 39.094L0.849365 64.7775L1.33162 65.7062C1.86055 66.7567 2.43615 67.2895 3.5718 67.8071L4.34964 68.1725H12.8747H21.3843V71.4153V74.6733L21.8665 75.602C22.3955 76.6525 22.9711 77.1853 24.1067 77.703L24.8846 78.0684H33.0519C40.9236 78.0684 41.2503 78.0531 41.9192 77.7486C42.9926 77.2767 43.5993 76.7438 44.1127 75.8456L44.595 75.0235H59.3583H74.1217L74.5729 74.5972C74.8373 74.3688 76.2685 72.6485 77.762 70.7607C80.3755 67.4874 80.5 67.3047 80.5 66.6501C80.5 65.9954 80.3755 65.8128 77.762 62.5395C76.2685 60.6517 74.8373 58.9313 74.5729 58.703L74.1217 58.2767H59.3583H44.595L44.1127 57.4546C43.5993 56.5563 42.9926 56.0235 41.9192 55.5515C41.2503 55.247 40.9236 55.2318 33.0363 55.2318H24.8534L23.9045 55.7038C22.8311 56.2214 22.2866 56.7847 21.7577 57.8961C21.3998 58.6116 21.3843 58.8248 21.3843 61.9001V65.1429L13.2481 65.0972C4.11628 65.0515 4.44298 65.082 4.13184 63.9554C3.89849 63.1485 3.89849 15.0395 4.13184 14.2326C4.42742 13.1974 4.6141 13.1365 8.92332 13.0908L12.7347 13.0451L11.6146 14.187C10.5412 15.2983 10.4946 15.3745 10.4946 16.09C10.4946 17.1405 11.0079 17.6277 12.0969 17.6277H12.8903L15.5816 14.9938L18.2729 12.36V11.5379V10.7158L15.5816 8.08198L12.8903 5.44817H12.0969C11.4591 5.44817 11.2413 5.52429 10.899 5.844ZM41.1569 58.7182L41.6081 59.1597V66.6501V74.1405L41.1569 74.582L40.7058 75.0235H33.0519H25.3979L24.9468 74.582L24.4956 74.1405V66.6501V59.1597L24.9468 58.7182L25.3979 58.2767H33.0519H40.7058L41.1569 58.7182ZM74.8218 63.864C75.9263 65.2647 76.8286 66.5131 76.8286 66.6501C76.8286 66.7871 75.9263 68.0355 74.8218 69.4361L72.7994 71.9634L58.7672 71.9786H44.7194V66.6501V61.3216H58.7672L72.7994 61.3368L74.8218 63.864Z" fill="#4D4BC9"/>
<path d="M28.7582 65.234C27.7315 65.4319 27.3581 66.9239 28.1359 67.6851L28.5404 68.0962H33.0519H37.5633L37.9678 67.6851C38.5434 67.1218 38.5434 66.1779 37.9678 65.6146L37.5633 65.2036L33.3163 65.1883C30.9984 65.1731 28.9293 65.1883 28.7582 65.234Z" fill="#292E40"/>
<path d="M11.459 28.1476C10.3856 28.6653 9.84113 29.2286 9.31221 30.3399L8.93884 31.1011V39.1092V47.1172L9.4211 48.0459C9.95003 49.0963 10.5256 49.6292 11.6613 50.1468L12.4391 50.5122H20.6064C28.4781 50.5122 28.8048 50.497 29.4738 50.1925C30.5472 49.7205 31.1539 49.1877 31.6673 48.2895L32.1495 47.4673H46.9129H61.6763L62.1274 47.0411C62.3919 46.8127 63.8231 45.0923 65.3165 43.2045C67.9301 39.9313 68.0545 39.7486 68.0545 39.0939C68.0545 38.4393 67.9301 38.2566 65.3165 34.9834C63.8231 33.0955 62.3919 31.3752 62.1274 31.1316L61.6763 30.7205H56.9159H52.1555L51.6888 31.1773C51.2843 31.5883 51.2377 31.7101 51.331 32.2125C51.611 33.6893 51.8444 33.7654 56.5736 33.7654L60.3539 33.7806L62.3763 36.3079C63.4808 37.7085 64.3831 38.9569 64.3831 39.0939C64.3831 39.2157 63.4808 40.4794 62.3763 41.8648L60.3539 44.4072L46.3217 44.4225H32.274V39.0939V33.7654H35.6187C39.6012 33.7654 39.8812 33.7045 40.2857 32.654C40.5191 32.0298 40.5346 31.9385 40.3013 31.5122C40.1613 31.2534 39.9124 30.9641 39.7568 30.8728C39.5701 30.7814 37.9989 30.7205 35.8054 30.7205H32.1495L31.6673 29.8984C31.1539 29.0002 30.5472 28.4673 29.4738 27.9954C28.8048 27.6909 28.4781 27.6757 20.5909 27.6757H12.408L11.459 28.1476ZM28.7115 31.162L29.1626 31.6036V39.0939V46.5843L28.7115 47.0258L28.2603 47.4673H20.6064H12.9525L12.5013 47.0258L12.0502 46.5843V39.0939V31.6036L12.5013 31.162L12.9525 30.7205H20.6064H28.2603L28.7115 31.162Z" fill="#4D4BC9"/>
<path d="M16.3128 37.6783C15.286 37.8763 14.9127 39.3683 15.6905 40.1295L16.095 40.5405H20.6064H25.1179L25.5224 40.1295C26.098 39.5662 26.098 38.6223 25.5224 38.059L25.1179 37.6479L20.8709 37.6327C18.5529 37.6175 16.4839 37.6327 16.3128 37.6783Z" fill="#292E40"/>
<path d="M44.6883 31.1775C44.2838 31.5885 44.2372 31.7103 44.3305 32.2127C44.4705 33.0044 44.7817 33.4002 45.4039 33.6134C46.244 33.8722 46.944 33.522 47.2863 32.6542C47.5196 32.03 47.5352 31.9387 47.3018 31.5124C46.9907 30.9187 46.6174 30.7208 45.8084 30.7208C45.295 30.7208 45.0617 30.8121 44.6883 31.1775Z" fill="#292E40"/>
<path d="M44.7195 66.65V71.9785H58.6895L72.6439 71.9633L74.6662 69.436C75.7863 68.0354 76.6886 66.787 76.6886 66.65C76.6886 66.513 75.7863 65.2646 74.6662 63.8639L72.6439 61.3367L58.6895 61.3215H44.7195V66.65Z" fill="#ECEC6B"/>
<path d="M44.7195 11.5377V16.8662H58.6895H72.6439L74.7129 14.2933C75.833 12.8774 76.7664 11.629 76.7664 11.5377C76.7664 11.4463 75.833 10.1979 74.7129 8.78208L72.6439 6.20916H58.6895H44.7195V11.5377Z" fill="#EC6B96"/>
<path d="M40.3169 32.8214C40.1769 33.1563 39.8813 33.4913 39.6635 33.5826C39.399 33.7044 38.0923 33.7653 35.7743 33.7653H32.274V39.0938V44.4224H46.244H60.1984L62.2675 41.8342C63.3876 40.4031 64.321 39.17 64.321 39.0786C64.321 39.0025 63.3876 37.7693 62.2675 36.3535L60.1984 33.7653H56.1848H52.1711L51.7978 33.3999C51.5955 33.202 51.3777 32.8519 51.3155 32.6387L51.2222 32.2429H49.402H47.5819L47.3174 32.8214C46.7107 34.1764 44.6883 34.0546 44.315 32.6387L44.2216 32.2429H42.4015H40.5814L40.3169 32.8214Z" fill="#15C1EC"/>
<path d="M25.5069 3.30131C25.3358 3.37743 25.0557 3.59057 24.8846 3.77326C24.589 4.09298 24.5735 4.32134 24.5735 11.5529V18.9976L25.0091 19.4087L25.4291 19.835H33.0519H40.6747L41.0948 19.4087L41.5304 18.9976V11.5377V4.07775L41.0948 3.66669L40.6747 3.24041L33.2386 3.20996C29.1627 3.19474 25.678 3.24041 25.5069 3.30131ZM38.0456 10.4568C38.4034 10.8069 38.4968 11.0353 38.4968 11.5377C38.4968 12.0401 38.4034 12.2685 38.0456 12.6186L37.5945 13.0601H33.0519H28.5093L28.0582 12.6186C27.7004 12.2685 27.6071 12.0401 27.6071 11.5377C27.6071 11.0353 27.7004 10.8069 28.0582 10.4568L28.5093 10.0153H33.0519H37.5945L38.0456 10.4568Z" fill="white"/>
<path d="M13.0615 30.8575C12.8903 30.9336 12.6103 31.1467 12.4392 31.3294C12.1436 31.6491 12.1281 31.8775 12.1281 39.1091V46.5538L12.5636 46.9648L12.9837 47.3911H20.6065H28.2293L28.6493 46.9648L29.0849 46.5538V39.0938V31.6339L28.6493 31.2228L28.2293 30.7966L20.7932 30.7661C16.7173 30.7509 13.2326 30.7966 13.0615 30.8575ZM25.6002 38.0129C25.958 38.3631 26.0514 38.5914 26.0514 39.0938C26.0514 39.5962 25.958 39.8246 25.6002 40.1748L25.1491 40.6163H20.6065H16.0639L15.6128 40.1748C15.255 39.8246 15.1616 39.5962 15.1616 39.0938C15.1616 38.5914 15.255 38.3631 15.6128 38.0129L16.0639 37.5714H20.6065H25.1491L25.6002 38.0129Z" fill="white"/>
<path d="M25.5069 58.4136C25.3358 58.4897 25.0557 58.7029 24.8846 58.8856C24.589 59.2053 24.5735 59.4336 24.5735 66.6652V74.1099L25.0091 74.521L25.4291 74.9473H33.0519H40.6747L41.0948 74.521L41.5304 74.1099V66.65V59.1901L41.0948 58.779L40.6747 58.3527L33.2386 58.3223C29.1627 58.307 25.678 58.3527 25.5069 58.4136ZM38.0456 65.5691C38.4034 65.9192 38.4968 66.1476 38.4968 66.65C38.4968 67.1524 38.4034 67.3808 38.0456 67.7309L37.5945 68.1724H33.0519H28.5093L28.0582 67.7309C27.7004 67.3808 27.6071 67.1524 27.6071 66.65C27.6071 66.1476 27.7004 65.9192 28.0582 65.5691L28.5093 65.1276H33.0519H37.5945L38.0456 65.5691Z" fill="white"/>
</g>
<defs>
<clipPath id="clip0_81_44090">
<rect width="79.6506" height="77.9487" fill="white" transform="translate(0.849365 0.119629)"/>
</clipPath>
</defs>
</svg>
